<svg id="Layer_1" data-name="Layer 1" xmlns="http://www.w3.org/2000/svg" viewBox="0 0 188.35 144.88"><defs><style>.cls-1{fill:#fff;stroke:#1d1d1b;stroke-miterlimit:10;opacity:0.92;}.cls-2{font-size:18px;fill:#1d1d1b;font-family:VT323-Regular, VT323;}.cls-3{font-size:13px;}.cls-4{letter-spacing:0.13em;}.cls-5{letter-spacing:0.13em;}.cls-6{letter-spacing:0.29em;}.cls-7{letter-spacing:0.29em;}.cls-8{letter-spacing:0em;}.cls-9{letter-spacing:0.93em;}.cls-10{letter-spacing:0.93em;}.cls-11{letter-spacing:0.26em;}.cls-12{letter-spacing:0.26em;}.cls-13{letter-spacing:0.26em;}</style></defs><title>about</title><rect class="cls-1" x="0.5" y="0.5" width="187.35" height="143.88"/><text class="cls-2" transform="translate(54.58 25.46)">Emma Cheung<tspan class="cls-3"><tspan x="-45.24" y="31.2">London-based</tspan><tspan class="cls-4" x="17.15" y="31.2"> </tspan><tspan x="24" y="31.2">creative</tspan><tspan class="cls-5" x="65.6" y="31.2"> </tspan><tspan x="72.44" y="31.2">interested </tspan><tspan x="-45.24" y="46.8">in</tspan><tspan class="cls-6" x="-34.84" y="46.8"> </tspan><tspan x="-25.87" y="46.8">film,</tspan><tspan class="cls-7" x="-5.07" y="46.8"> </tspan><tspan x="3.91" y="46.8">tech</tspan><tspan class="cls-6" x="24.71" y="46.8"> </tspan><tspan x="33.69" y="46.8">+</tspan><tspan class="cls-7" x="38.88" y="46.8"> </tspan><tspan class="cls-8" x="47.86" y="46.8">modernism.</tspan><tspan class="cls-6" x="99.86" y="46.8"> </tspan><tspan x="108.84" y="46.8">UCL </tspan><tspan x="-45.24" y="62.4">English</tspan><tspan class="cls-9" x="-8.84" y="62.4"> </tspan><tspan x="8.4" y="62.4">Literature</tspan><tspan class="cls-10" x="60.4" y="62.4"> </tspan><tspan x="77.64" y="62.4">graduate, </tspan><tspan x="-45.24" y="78">starting</tspan><tspan class="cls-11" x="-3.65" y="78"> </tspan><tspan x="4.98" y="78">an</tspan><tspan class="cls-11" x="15.38" y="78"> </tspan><tspan x="24" y="78">MA</tspan><tspan class="cls-12" x="34.4" y="78"> </tspan><tspan class="cls-8" x="43.02" y="78">in</tspan><tspan class="cls-13" x="53.42" y="78"> </tspan><tspan x="62.04" y="78">Ethnographic </tspan><tspan x="-45.24" y="93.6">and Documentary film in September.</tspan></tspan></text></svg>