<svg id="Layer_1" data-name="Layer 1" xmlns="http://www.w3.org/2000/svg" viewBox="0 0 195 47"><defs><style>.cls-1{fill:#ff0;}.cls-2{fill:#ff5e4d;}</style></defs><title>buy-button</title><rect class="cls-1" width="195" height="47" rx="23.5" ry="23.5"/><path class="cls-2" d="M78.32,57.28V40.48h5.59a5.7,5.7,0,0,1,3.94,1.2,4,4,0,0,1,1.32,3.07,3.61,3.61,0,0,1-.8,2.41A4.37,4.37,0,0,1,86.6,48.5v.16a4.64,4.64,0,0,1,2.06,1.4,3.77,3.77,0,0,1,.89,2.59A4.38,4.38,0,0,1,88.91,55a4.6,4.6,0,0,1-1.84,1.67,6.52,6.52,0,0,1-3,.62Zm2-9.55h3.44A3.78,3.78,0,0,0,86.23,47,2.54,2.54,0,0,0,87.08,45a2.41,2.41,0,0,0-.84-2,4,4,0,0,0-2.55-.7H80.33Zm0,7.7h3.56a4,4,0,0,0,2.66-.78,2.71,2.71,0,0,0,.94-2.19,2.64,2.64,0,0,0-1-2.2,4.15,4.15,0,0,0-2.66-.78H80.33Z" transform="translate(-2 -27)"/><path class="cls-2" d="M97.49,57.57a4,4,0,0,1-3.26-1.3,5.58,5.58,0,0,1-1.1-3.74V45.38h2v6.91a3.93,3.93,0,0,0,.71,2.48,2.57,2.57,0,0,0,2.15.9,3.29,3.29,0,0,0,2.42-1,3.75,3.75,0,0,0,1-2.8V45.38h2v11.9h-1.68l-.21-1.8h-.12A4.08,4.08,0,0,1,99.89,57,4.65,4.65,0,0,1,97.49,57.57Z" transform="translate(-2 -27)"/><path class="cls-2" d="M109.11,62.56,112,56.13h-.7l-4.7-10.75h2.18l3.91,9.21,4.13-9.21H119l-7.75,17.18Z" transform="translate(-2 -27)"/></svg>