<svg id="Layer_1" data-name="Layer 1" xmlns="http://www.w3.org/2000/svg" viewBox="0 0 195 47"><defs><style>.cls-1{fill:#ff5e4d;}.cls-2{fill:#ff0;}</style></defs><title>cart-button</title><rect class="cls-1" width="195" height="47" rx="23.5" ry="23.5"/><path class="cls-2" d="M21.93,58.28l5.25-16.8h2.33l5.23,16.8H32.53L31.31,54.1H25.36l-1.23,4.18Zm6.36-14-2.43,8.11h4.95l-2.43-8.11Z" transform="translate(-3 -27)"/><path class="cls-2" d="M42.33,58.57a5.1,5.1,0,0,1-2.7-.72,4.75,4.75,0,0,1-1.86-2.13,7.81,7.81,0,0,1-.68-3.42,7.71,7.71,0,0,1,.68-3.38,4.75,4.75,0,0,1,1.86-2.11,5.1,5.1,0,0,1,2.7-.72,4.5,4.5,0,0,1,2.34.55,3.66,3.66,0,0,1,1.38,1.44V41h2V58.28H46.41l-.22-1.85h-.14A3.69,3.69,0,0,1,44.63,58,4.25,4.25,0,0,1,42.33,58.57Zm.26-1.92a3.27,3.27,0,0,0,2.5-1.07,4.69,4.69,0,0,0,1-3.25,4.68,4.68,0,0,0-1-3.25A3.23,3.23,0,0,0,42.59,48a3.16,3.16,0,0,0-2.48,1.07,4.68,4.68,0,0,0-1,3.25,4.69,4.69,0,0,0,1,3.25A3.19,3.19,0,0,0,42.59,56.65Z" transform="translate(-3 -27)"/><path class="cls-2" d="M56.73,58.57a5.1,5.1,0,0,1-2.7-.72,4.75,4.75,0,0,1-1.86-2.13,7.81,7.81,0,0,1-.68-3.42,7.71,7.71,0,0,1,.68-3.38A4.75,4.75,0,0,1,54,46.81a5.1,5.1,0,0,1,2.7-.72,4.5,4.5,0,0,1,2.34.55,3.66,3.66,0,0,1,1.38,1.44V41h2V58.28H60.81l-.22-1.85h-.14A3.69,3.69,0,0,1,59,58,4.25,4.25,0,0,1,56.73,58.57ZM57,56.65a3.27,3.27,0,0,0,2.5-1.07,4.69,4.69,0,0,0,1-3.25,4.68,4.68,0,0,0-1-3.25A3.23,3.23,0,0,0,57,48a3.16,3.16,0,0,0-2.48,1.07,4.68,4.68,0,0,0-1,3.25,4.69,4.69,0,0,0,1,3.25A3.19,3.19,0,0,0,57,56.65Z" transform="translate(-3 -27)"/><path class="cls-2" d="M87.18,58.28a3.85,3.85,0,0,1-2.57-.79,3.62,3.62,0,0,1-.93-2.86V48.1h-3V46.38h1.8a1.29,1.29,0,0,0,1.42-1.2l.34-1.85h1.48v3.05h4.76V48.1H85.69v6.53a1.82,1.82,0,0,0,.47,1.42,2.49,2.49,0,0,0,1.62.41h2.67v1.82Z" transform="translate(-3 -27)"/><path class="cls-2" d="M100.33,58.57a5.71,5.71,0,0,1-3-.77,5.34,5.34,0,0,1-2-2.17,7.63,7.63,0,0,1,0-6.6,5.28,5.28,0,0,1,2-2.17,6.13,6.13,0,0,1,6,0,5.41,5.41,0,0,1,2,2.17,7.73,7.73,0,0,1,0,6.6,5.48,5.48,0,0,1-2,2.17A5.75,5.75,0,0,1,100.33,58.57Zm0-1.92a3.82,3.82,0,0,0,1.88-.46,3.2,3.2,0,0,0,1.33-1.41,6.37,6.37,0,0,0,0-4.9,3.28,3.28,0,0,0-1.33-1.42,3.93,3.93,0,0,0-1.88-.45,3.83,3.83,0,0,0-1.84.45,3.38,3.38,0,0,0-1.35,1.42,5.34,5.34,0,0,0-.5,2.45,4.35,4.35,0,0,0,1.08,3.27A3.61,3.61,0,0,0,100.33,56.65Z" transform="translate(-3 -27)"/><path class="cls-2" d="M129.25,58.57a5.76,5.76,0,0,1-3.51-1.08,6.71,6.71,0,0,1-2.26-3,12.23,12.23,0,0,1-.78-4.58,12.29,12.29,0,0,1,.78-4.57,6.69,6.69,0,0,1,2.26-3,5.76,5.76,0,0,1,3.51-1.08,6,6,0,0,1,4.18,1.43,5.82,5.82,0,0,1,1.85,3.8H133a4.28,4.28,0,0,0-1.2-2.37,3.49,3.49,0,0,0-2.59-1A3.75,3.75,0,0,0,126,44.9a9,9,0,0,0-1.2,5,8.92,8.92,0,0,0,1.2,5,3.76,3.76,0,0,0,3.29,1.8,3.58,3.58,0,0,0,2.63-.91A4.14,4.14,0,0,0,133,53.41h2.24a6.3,6.3,0,0,1-1.91,3.78A5.91,5.91,0,0,1,129.25,58.57Z" transform="translate(-3 -27)"/><path class="cls-2" d="M142.52,58.57a4.89,4.89,0,0,1-2.35-.51,3.31,3.31,0,0,1-1.39-1.33,3.72,3.72,0,0,1-.46-1.81,3.18,3.18,0,0,1,1.34-2.77,6,6,0,0,1,3.56-.95h3.26V51q0-3.12-2.85-3.12a3.53,3.53,0,0,0-1.93.5,2.34,2.34,0,0,0-1,1.59h-2.06a3.86,3.86,0,0,1,.8-2.07,4.5,4.5,0,0,1,1.76-1.32,6.26,6.26,0,0,1,2.43-.45,4.69,4.69,0,0,1,3.71,1.33A5.22,5.22,0,0,1,148.5,51v7.32h-1.73l-.17-1.85h-.16a5.15,5.15,0,0,1-1.41,1.5A4.17,4.17,0,0,1,142.52,58.57Zm.36-1.78a3.37,3.37,0,0,0,2-.55,3.54,3.54,0,0,0,1.22-1.46,4.75,4.75,0,0,0,.42-2h-3.09a3.6,3.6,0,0,0-2.29.56,2,2,0,0,0,0,2.92A2.71,2.71,0,0,0,142.88,56.79Z" transform="translate(-3 -27)"/><path class="cls-2" d="M152.75,58.28V56.55h3.05V48.7a.52.52,0,0,0-.58-.6h-2.16V46.38H156a1.84,1.84,0,0,1,1.28.43,1.62,1.62,0,0,1,.48,1.27v.5h.09a3.25,3.25,0,0,1,1.09-1.84,3.47,3.47,0,0,1,2.25-.65h2.18v2.13h-2.47a2.75,2.75,0,0,0-2.26,1,3.82,3.82,0,0,0-.79,2.48v4.87h3.75v1.73Z" transform="translate(-3 -27)"/><path class="cls-2" d="M173.58,58.28a3.84,3.84,0,0,1-2.57-.79,3.62,3.62,0,0,1-.93-2.86V48.1h-3V46.38h1.8a1.29,1.29,0,0,0,1.42-1.2l.33-1.85h1.49v3.05h4.75V48.1h-4.75v6.53a1.82,1.82,0,0,0,.47,1.42,2.49,2.49,0,0,0,1.62.41h2.66v1.82Z" transform="translate(-3 -27)"/></svg>