<svg id="Layer_1" data-name="Layer 1" xmlns="http://www.w3.org/2000/svg" viewBox="0 0 187.1 154.18"><defs><style>.cls-1{fill:#fff;stroke:#1d1d1b;stroke-miterlimit:10;stroke-width:9.5px;}.cls-2{fill:#010101;}</style></defs><title>contact</title><path class="cls-1" d="M143.77,34.42h-88A44.93,44.93,0,0,0,11,79.22v22.4a45,45,0,0,0,37,44.1l-4.09,28L83,146.42h60.76a44.93,44.93,0,0,0,44.81-44.8V79.22A44.93,44.93,0,0,0,143.77,34.42Z" transform="translate(-6.23 -29.67)"/><path class="cls-2" d="M121,70a30,30,0,1,0,0,42.44A30,30,0,0,0,121,70Zm-3.27,39.17a25.39,25.39,0,1,1,0-35.9A25.41,25.41,0,0,1,117.73,109.18ZM88.58,83.11a3.51,3.51,0,1,1,3.51,3.51A3.51,3.51,0,0,1,88.58,83.11Zm15.91,0A3.51,3.51,0,1,1,108,86.62,3.51,3.51,0,0,1,104.49,83.11Zm8.29,14.36a14.35,14.35,0,0,1-26,0,1.71,1.71,0,0,1,.92-2.22,1.82,1.82,0,0,1,.65-.12,1.69,1.69,0,0,1,1.57,1,11,11,0,0,0,19.77,0,1.69,1.69,0,1,1,3.11,1.34Z" transform="translate(-6.23 -29.67)"/></svg>